<?xml version="1.0" encoding="utf-8"?>
<!-- Generator: Adobe Illustrator 22.1.0, SVG Export Plug-In . SVG Version: 6.00 Build 0)  -->
<svg version="1.1" id="Layer_1" xmlns="http://www.w3.org/2000/svg" xmlns:xlink="http://www.w3.org/1999/xlink" x="0px" y="0px"
	 viewBox="0 0 75.5 75.6" style="enable-background:new 0 0 75.5 75.6;" xml:space="preserve">
<style type="text/css">
	.st0{fill:#FFFFFF;}
</style>
<g>
	<path class="st0" d="M32.4,29.6c0,0.8,0.3,1.4,0.8,2c0.3,0.3,0.7,0.6,1.6,1v-6c-0.5,0.2-0.9,0.4-1.2,0.7
		C32.8,28,32.4,28.8,32.4,29.6z"/>
	<path class="st0" d="M40.7,41.3v6.8c0.8-0.2,1.5-0.5,1.9-0.9c0.8-0.7,1.2-1.5,1.2-2.6c0-0.9-0.3-1.6-0.8-2.2
		C42.7,42.2,42.1,41.8,40.7,41.3z"/>
	<path class="st0" d="M37.8,4C19.1,4,3.9,19.1,3.9,37.8s15.2,33.8,33.8,33.8s33.8-15.2,33.8-33.8S56.4,4,37.8,4z M46.7,52.5
		c-1.8,1.2-3.8,2-6,2.3v4.2h-5.8v-4.3c-2.2-0.4-4.2-1.2-6-2.5c-2.8-1.9-4.2-4.6-4.3-8.1l0-1.5h6.9l0.2,1.3c0.2,1.3,0.7,2.3,1.7,3.2
		c0.4,0.4,1,0.7,1.6,0.9v-8.2c-2.9-0.8-5.1-1.9-6.7-3.3c-1.9-1.7-2.8-3.9-2.8-6.6c0-3.2,1.3-5.8,3.7-7.7c1.6-1.3,3.6-2.1,5.8-2.5
		v-4.3h5.8v4.2c2.2,0.4,4.2,1.2,5.9,2.5c2.5,1.9,3.8,4.6,3.9,7.8l0.1,1.6h-7l-0.1-1.4c-0.1-1.4-0.6-2.3-1.6-3
		c-0.4-0.3-0.7-0.5-1.1-0.6v7.6c3,0.8,5.4,1.9,7.2,3.3c2,1.7,3,4,3,6.9C50.8,47.9,49.4,50.7,46.7,52.5z"/>
</g>
</svg>
